# xmcd CD database file
#
# Track frame offsets:
#	150
#	19900
#	40507
#	58182
#	79165
#	97890
#	118030
#	136890
#	158322
#	176585
#	197577
#	218155
#	238195
#	259115
#	275052
#	292887
#
# Disc length: 4182 seconds
#
# Revision: 0
# Processed by: cddbd v1.5.2PL0 Copyright (c) Steve Scherf et al.
# Submitted via: CDex 1.70beta2
#
DISCID=da105410
DTITLE=香田晋 - ベストアルバム
DYEAR=1993
DGENRE=Blues
TTITLE0=手酌酒
TTITLE1=櫂(かい) デュエット:原田ゆかり
TTITLE2=泣かせはしない
TTITLE3=おふくろ
TTITLE4=ヤン衆丸
TTITLE5=男同志
TTITLE6=雨じゃんじゃん
TTITLE7=迷い川
TTITLE8=別れ曲(うた)でも唄って
TTITLE9=恋の酒
TTITLE10=影法師
TTITLE11=夢あかり
TTITLE12=北列車
TTITLE13=夢に生きたら
TTITLE14=ゆうやけ
TTITLE15=サボテンの花
EXTD=YEAR: 1993
EXTT0=
EXTT1=
EXTT2=
EXTT3=
EXTT4=
EXTT5=
EXTT6=
EXTT7=
EXTT8=
EXTT9=
EXTT10=
EXTT11=
EXTT12=
EXTT13=
EXTT14=
EXTT15=
PLAYORDER=
